<?xml version="1.0" standalone="no"?>
<!DOCTYPE svg PUBLIC "-//W3C//DTD SVG 20010904//EN"
 "http://www.w3.org/TR/2001/REC-SVG-20010904/DTD/svg10.dtd">
<svg version="1.0" xmlns="http://www.w3.org/2000/svg"
 width="1145.000000pt" height="1034.000000pt" viewBox="0 0 1145.000000 1034.000000"
 preserveAspectRatio="xMidYMid meet">

<g transform="translate(0.000000,1034.000000) scale(0.100000,-0.100000)"
fill="#000000" stroke="none">
<path d="M5693 7928 c-100 -113 -160 -535 -134 -948 14 -224 45 -463 80 -615
18 -79 41 -200 41 -215 0 -8 -13 -21 -29 -28 -28 -12 -61 -8 -61 9 0 17 -75
128 -87 129 -8 0 -10 7 -6 18 6 15 5 16 -12 2 -17 -14 -18 -13 -11 13 7 31 -9
37 -19 6 -4 -11 -9 -18 -11 -16 -3 2 1 16 7 31 10 21 10 29 -1 39 -8 8 -11 8
-6 0 7 -14 -22 -7 -44 10 -19 15 -43 74 -42 105 0 13 -6 22 -15 22 -8 0 -12 4
-9 9 9 15 -114 168 -123 153 -3 -5 -17 2 -31 14 -13 13 -19 24 -12 24 6 0 12
-4 12 -9 0 -5 7 -11 15 -15 25 -9 17 7 -29 56 -24 27 -46 53 -49 60 -2 7 -8
10 -12 6 -4 -4 0 -14 9 -23 26 -27 18 -41 -9 -15 -17 16 -23 30 -19 45 3 13 1
26 -5 29 -7 5 -11 -2 -11 -16 -1 -20 -2 -21 -11 -5 -5 9 -7 22 -3 28 3 6 -7
23 -22 38 -16 15 -43 43 -60 61 -38 43 -113 111 -179 165 -28 22 -54 45 -60
51 -18 18 -103 84 -110 84 -3 0 -15 8 -25 18 -31 29 -193 110 -225 113 -50 4
-63 0 -70 -22 -8 -24 13 -119 26 -119 5 0 9 -4 9 -8 0 -12 65 -127 104 -185
15 -22 21 -25 28 -15 7 9 8 7 4 -7 -4 -13 5 -32 27 -57 18 -20 46 -53 62 -75
35 -44 257 -273 266 -273 3 0 15 9 27 20 25 24 29 14 7 -16 -23 -30 -18 -34
33 -30 26 3 40 2 30 0 -30 -9 -31 -36 -1 -60 15 -12 31 -20 35 -18 4 3 5 -3 1
-13 -6 -16 -5 -16 10 -4 10 8 21 10 25 6 4 -4 1 -10 -6 -12 -17 -7 4 -33 27
-33 13 0 14 2 2 9 -12 8 -12 11 1 25 14 13 15 11 14 -22 -1 -32 2 -37 19 -34
11 2 17 0 12 -4 -4 -4 0 -16 10 -26 18 -20 33 -24 33 -8 0 6 -7 10 -15 10 -8
0 -15 5 -15 10 0 6 4 10 9 10 14 0 33 -28 27 -39 -7 -11 78 -73 88 -64 3 4 6
2 6 -4 0 -6 18 -22 39 -37 33 -23 43 -26 61 -16 12 6 24 9 27 7 2 -3 -5 -8
-16 -12 -12 -3 -21 -11 -21 -16 0 -11 3 -11 36 2 l28 10 -19 -22 c-19 -21 -19
-22 -1 -16 14 6 17 3 12 -8 -4 -10 1 -15 14 -15 11 0 20 -4 20 -9 0 -4 30 -28
68 -51 100 -64 102 -66 89 -101 -13 -32 -36 -36 -112 -19 -22 5 -60 14 -85 19
-107 24 -406 71 -525 82 -166 16 -520 16 -650 0 -225 -28 -384 -76 -432 -130
-13 -15 -23 -29 -23 -33 0 -3 16 -20 36 -36 63 -52 228 -100 424 -123 120 -14
467 -14 625 0 137 12 505 72 707 115 17 4 48 -42 48 -68 -1 -11 -53 -48 -137
-96 -24 -13 -46 -33 -49 -42 -3 -10 -10 -16 -15 -12 -11 6 -92 -50 -83 -59 9
-9 -16 -47 -31 -47 -18 0 -20 -16 -2 -24 6 -3 0 -3 -14 0 -21 4 -31 0 -48 -24
-21 -30 -67 -48 -74 -29 -4 13 -113 -71 -122 -93 -5 -12 -4 -13 6 -2 15 14 29
16 29 2 0 -5 -15 -12 -32 -15 -31 -6 -67 -32 -157 -112 -27 -25 -33 -35 -23
-42 11 -7 10 -9 -3 -14 -9 -4 -13 -3 -10 3 16 25 -15 5 -60 -41 -40 -40 -47
-51 -35 -59 8 -5 11 -12 7 -17 -5 -4 -12 -1 -17 7 -10 16 -43 -14 -135 -125
-32 -38 -61 -72 -64 -75 -3 -3 -22 -27 -40 -55 -19 -27 -38 -52 -41 -55 -4 -3
-22 -32 -40 -65 -18 -33 -36 -64 -40 -70 -5 -5 -15 -33 -23 -62 -15 -49 -15
-53 4 -78 15 -18 30 -25 55 -25 19 0 34 5 34 10 0 6 5 10 12 10 6 0 19 6 27
14 9 7 39 22 66 32 28 10 52 21 55 24 3 4 27 22 55 40 51 35 72 51 110 85 13
11 51 45 86 75 60 52 272 263 312 310 10 11 15 25 12 30 -3 6 1 7 9 4 10 -4
20 3 27 20 7 14 15 26 19 26 4 0 19 18 34 41 15 22 35 47 46 56 10 9 16 23 12
31 -3 10 -1 13 6 9 6 -4 21 7 33 25 13 18 27 35 31 36 4 2 8 9 8 15 0 7 9 23
19 36 10 14 16 32 13 40 -3 9 -2 13 3 9 13 -12 35 12 35 38 0 15 6 24 15 24
12 0 13 5 4 26 -5 15 -8 29 -5 31 2 3 7 -5 11 -16 10 -31 28 -26 20 6 -6 24
-5 25 11 12 16 -13 17 -12 11 5 -6 14 -4 17 8 12 15 -5 16 -3 19 48 1 16 7 31
14 34 7 2 12 15 12 29 0 23 23 52 43 53 16 0 6 -28 -12 -33 -10 -2 -20 -16
-23 -31 -6 -32 9 -34 22 -3 5 12 16 30 24 41 14 18 17 18 51 2 28 -14 34 -21
30 -39 -18 -79 -38 -177 -55 -277 -11 -63 -22 -120 -25 -127 -9 -26 -44 -387
-50 -518 -16 -358 52 -773 141 -862 20 -20 61 -16 78 9 24 34 63 145 81 228
40 185 47 285 42 580 -3 157 -8 299 -11 315 -3 17 -10 71 -16 120 -11 97 -49
305 -80 450 -11 50 -20 93 -20 97 0 13 60 39 73 31 14 -8 52 -55 52 -63 0 -15
51 -80 62 -80 7 0 10 -6 7 -13 -5 -15 92 -153 106 -150 5 2 7 -3 4 -11 -3 -7
1 -20 8 -27 7 -8 29 -37 47 -64 38 -55 49 -64 65 -61 6 2 8 1 4 -1 -13 -7 -9
-18 12 -44 85 -100 103 -118 113 -112 6 3 7 1 3 -5 -4 -6 1 -21 11 -33 36 -46
248 -259 257 -259 5 0 17 10 27 22 22 25 25 12 4 -18 -13 -20 -11 -24 30 -63
24 -23 48 -40 52 -39 18 5 54 -15 50 -27 -6 -13 11 -35 26 -35 5 0 4 7 -3 15
-10 12 -9 15 5 15 13 0 16 -6 11 -25 -4 -16 -2 -25 5 -25 6 0 28 -12 48 -28
64 -49 118 -73 148 -67 15 3 22 2 16 -1 -7 -3 -13 -9 -13 -12 0 -9 43 -27 94
-41 33 -9 41 -8 52 7 8 9 14 29 14 43 0 29 -43 133 -59 144 -6 3 -11 13 -11
22 0 21 -120 184 -131 178 -5 -4 -6 0 -4 7 6 16 -92 129 -261 302 -31 32 -98
81 -106 78 -5 -1 -7 1 -4 6 8 13 -123 129 -249 222 -33 24 -85 63 -117 87 -31
24 -59 43 -63 43 -4 0 -24 14 -45 30 -25 20 -45 28 -57 24 -13 -4 -14 -3 -5 4
10 6 -5 20 -55 50 -37 23 -74 46 -82 51 -11 7 -11 15 0 45 14 40 27 43 109 26
53 -12 209 -41 370 -69 190 -33 333 -44 575 -44 263 0 400 15 571 64 105 30
165 59 193 93 12 14 11 20 -8 40 -35 38 -124 75 -238 101 -176 39 -282 49
-538 48 -307 -1 -459 -18 -810 -89 -66 -14 -131 -27 -145 -30 -14 -2 -30 -6
-36 -8 -6 -2 -16 -1 -23 3 -14 9 -42 84 -34 91 3 3 8 0 10 -7 5 -13 63 15 63
30 0 10 26 37 35 37 3 0 3 -4 0 -10 -3 -6 1 -7 9 -4 19 7 21 20 4 28 -7 3 -1
4 15 1 15 -3 27 -1 27 5 0 5 5 10 11 10 5 0 44 25 84 55 41 30 77 55 80 55 16
0 90 64 87 76 -2 8 3 12 12 8 8 -3 21 -1 28 5 19 16 53 45 100 83 71 57 131
111 196 176 34 35 62 60 62 56 0 -4 12 9 28 28 15 18 53 60 85 93 31 32 57 66
56 74 0 12 -3 11 -8 -3 -4 -11 -10 -15 -13 -10 -4 5 0 17 7 27 10 14 14 15 18
5 4 -9 12 -6 26 12 11 14 16 27 11 28 -19 7 -9 29 18 41 23 10 24 9 10 -2 -9
-8 -13 -18 -9 -25 15 -24 32 35 19 63 -8 18 -8 29 -1 36 14 14 33 3 33 -18 0
-13 -3 -13 -15 -3 -17 14 -20 3 -5 -20 8 -13 11 -12 24 5 9 11 13 26 11 34 -4
9 0 11 10 7 8 -3 15 -1 15 4 0 5 16 35 35 67 19 32 35 67 35 77 0 11 3 16 7
12 9 -9 43 83 42 114 -1 24 -1 24 -14 -5 l-14 -30 -1 35 c0 19 -4 30 -8 23 -4
-6 -21 -14 -37 -18 l-30 -6 28 16 c45 26 25 28 -39 4 -49 -19 -55 -24 -39 -31
15 -6 12 -7 -12 -4 -18 3 -35 0 -39 -6 -5 -7 -3 -8 6 -3 8 5 11 4 6 -3 -4 -6
-12 -9 -19 -6 -8 3 -25 -6 -40 -20 -15 -14 -27 -23 -27 -20 0 10 -61 -28 -67
-42 -3 -7 -10 -14 -15 -14 -6 0 -25 -12 -43 -27 -49 -41 -112 -94 -132 -109
-16 -12 -16 -15 -3 -23 8 -6 11 -13 7 -18 -5 -4 -12 -1 -17 7 -7 12 -12 12
-22 2 -10 -10 -10 -15 2 -22 8 -5 11 -12 7 -17 -5 -4 -12 -1 -17 7 -8 12 -16
8 -47 -24 -31 -31 -34 -37 -15 -31 13 4 22 2 22 -4 0 -6 -7 -11 -15 -11 -18 0
-20 -16 -2 -23 7 -3 4 -6 -6 -6 -11 -1 -21 8 -24 19 -5 19 -6 18 -26 -6 -16
-21 -17 -28 -6 -34 7 -5 10 -12 6 -17 -5 -4 -12 -1 -17 7 -7 11 -16 6 -46 -23
-21 -20 -34 -37 -28 -37 5 0 16 6 23 13 8 6 6 -1 -4 -16 -13 -21 -20 -25 -26
-15 -6 9 -9 8 -15 -5 -3 -9 -12 -17 -20 -17 -7 0 -11 -6 -8 -14 3 -8 0 -17 -7
-22 -8 -5 -10 -3 -4 7 4 8 -2 4 -14 -9 -21 -22 -22 -24 -7 -47 9 -14 12 -25 7
-25 -6 0 -15 8 -21 18 -9 15 -12 14 -35 -13 -19 -23 -22 -32 -12 -44 10 -12 9
-14 -5 -8 -28 10 -117 -90 -102 -115 4 -7 4 -10 -1 -6 -9 8 -55 -47 -92 -109
-14 -24 -29 -43 -35 -43 -5 0 -6 -10 -3 -22 4 -15 3 -18 -3 -10 -6 9 -27 -17
-71 -87 -34 -55 -66 -103 -72 -107 -6 -3 -23 0 -40 6 -35 15 -37 37 -13 130 8
34 13 68 10 75 -3 8 -1 15 4 17 4 2 11 23 14 48 3 25 10 68 16 95 21 97 50
341 61 517 20 308 -16 655 -88 836 -35 89 -51 112 -77 112 -13 0 -32 -10 -43
-22z m-1328 -618 c-3 -5 -15 -10 -26 -10 -11 0 -17 5 -14 10 3 6 15 10 26 10
11 0 17 -4 14 -10z m75 0 c-8 -5 -22 -10 -30 -10 -13 0 -13 1 0 10 8 5 22 10
30 10 13 0 13 -1 0 -10z m2687 -42 c-3 -8 -6 -5 -6 6 -1 11 2 17 5 13 3 -3 4
-12 1 -19z m-167 -20 c0 -6 -7 -5 -15 2 -8 7 -15 17 -15 22 0 6 7 5 15 -2 8
-7 15 -17 15 -22z m-2410 12 c13 -9 13 -10 0 -10 -8 0 -22 5 -30 10 -13 9 -13
10 0 10 8 0 22 -5 30 -10z m-50 -20 c0 -5 10 -10 22 -10 12 0 19 -3 15 -6 -9
-9 -57 5 -57 16 0 6 5 10 10 10 6 0 10 -4 10 -10z m-103 -42 c-3 -8 -6 -5 -6
6 -1 11 2 17 5 13 3 -3 4 -12 1 -19z m2650 0 c-3 -8 -6 -5 -6 6 -1 11 2 17 5
13 3 -3 4 -12 1 -19z m-262 -44 c-23 -23 -32 -8 -9 17 10 11 20 16 22 10 2 -6
-4 -18 -13 -27z m-2078 -10 c-3 -3 -12 -4 -19 -1 -8 3 -5 6 6 6 11 1 17 -2 13
-5z m2368 -4 c-3 -5 -11 -10 -16 -10 -6 0 -7 5 -4 10 3 6 11 10 16 10 6 0 7
-4 4 -10z m-2259 -82 c4 -7 -6 -3 -22 8 -16 10 -38 24 -48 30 -11 6 -22 16
-24 24 -5 14 83 -43 94 -62z m-350 31 c3 -6 0 -17 -7 -25 -12 -11 -14 -9 -15
11 -2 26 10 33 22 14z m2244 -3 c0 -3 -4 -8 -10 -11 -5 -3 -10 -1 -10 4 0 6 5
11 10 11 6 0 10 -2 10 -4z m-1953 -22 c-3 -3 -12 -4 -19 -1 -8 3 -5 6 6 6 11
1 17 -2 13 -5z m-283 -19 c-4 -8 -11 -15 -16 -15 -6 0 -5 6 2 15 7 8 14 15 16
15 2 0 1 -7 -2 -15z m456 -95 c10 0 22 -4 25 -10 3 -5 -2 -10 -13 -10 -22 0
-56 33 -45 44 5 4 9 1 11 -8 2 -9 12 -16 22 -16z m1986 -28 c-6 -5 -36 23 -36
34 0 4 9 -1 20 -11 11 -10 18 -20 16 -23z m-2021 8 c3 -5 1 -10 -4 -10 -6 0
-11 5 -11 10 0 6 2 10 4 10 3 0 8 -4 11 -10z m95 -52 c-1 -8 -6 -6 -15 6 -20
26 -19 42 0 22 8 -8 15 -21 15 -28z m-63 26 c-3 -3 -12 -4 -19 -1 -8 3 -5 6 6
6 11 1 17 -2 13 -5z m-297 -54 c0 -5 -4 -10 -10 -10 -5 0 -10 5 -10 10 0 6 5
10 10 10 6 0 10 -4 10 -10z m363 -28 c-9 -2 -19 2 -24 10 -16 24 -9 29 15 11
19 -14 21 -19 9 -21z m1847 29 c0 -6 -4 -13 -10 -16 -5 -3 -10 1 -10 9 0 9 5
16 10 16 6 0 10 -4 10 -9z m-1790 -11 c0 -5 -4 -10 -9 -10 -6 0 -13 5 -16 10
-3 6 1 10 9 10 9 0 16 -4 16 -10z m1735 -41 c-10 -15 -25 -10 -19 6 4 8 10 12
15 9 5 -3 7 -10 4 -15z m35 17 c0 -3 -4 -8 -10 -11 -5 -3 -10 -1 -10 4 0 6 5
11 10 11 6 0 10 -2 10 -4z m-450 -62 c0 -8 -4 -12 -10 -9 -5 3 -10 10 -10 16
0 5 5 9 10 9 6 0 10 -7 10 -16z m380 6 c0 -5 -4 -10 -9 -10 -6 0 -13 5 -16 10
-3 6 1 10 9 10 9 0 16 -4 16 -10z m-60 -28 c0 -14 -39 -46 -47 -39 -3 4 2 16
12 27 19 21 35 26 35 12z m-1911 -26 c14 -15 19 -26 12 -31 -6 -3 -11 -2 -11
4 0 6 -10 19 -22 31 -12 11 -17 20 -12 20 6 0 21 -11 33 -24z m1541 -7 c0 -6
-4 -7 -10 -4 -5 3 -10 11 -10 16 0 6 5 7 10 4 6 -3 10 -11 10 -16z m320 -59
c0 -5 -7 -10 -16 -10 -8 0 -12 5 -9 10 3 6 10 10 16 10 5 0 9 -4 9 -10z
m-1410 -30 c0 -5 -4 -10 -10 -10 -5 0 -10 5 -10 10 0 6 5 10 10 10 6 0 10 -4
10 -10z m1366 -6 c-3 -9 -6 -18 -6 -20 0 -2 -4 -4 -9 -4 -5 0 -7 9 -4 20 3 11
10 20 15 20 6 0 7 -7 4 -16z m-69 -30 c-3 -3 -12 -4 -19 -1 -8 3 -5 6 6 6 11
1 17 -2 13 -5z m-27 -34 c0 -5 -4 -10 -10 -10 -5 0 -10 5 -10 10 0 6 5 10 10
10 6 0 10 -4 10 -10z m-1540 -22 c0 -6 -6 -5 -15 2 -8 7 -15 14 -15 16 0 2 7
1 15 -2 8 -4 15 -11 15 -16z m360 -9 c0 -14 -17 -10 -23 5 -4 10 -1 13 9 9 7
-3 14 -9 14 -14z m1194 2 c3 -5 -3 -11 -15 -14 -16 -4 -18 -3 -8 9 13 16 16
17 23 5z m-94 -15 c0 -3 -4 -8 -10 -11 -5 -3 -10 -1 -10 4 0 6 5 11 10 11 6 0
10 -2 10 -4z m40 -16 c0 -5 -4 -10 -10 -10 -5 0 -10 5 -10 10 0 6 5 10 10 10
6 0 10 -4 10 -10z m-330 -46 c0 -8 -4 -12 -10 -9 -5 3 -10 13 -10 21 0 8 5 12
10 9 6 -3 10 -13 10 -21z m300 16 c0 -5 -4 -10 -10 -10 -5 0 -10 5 -10 10 0 6
5 10 10 10 6 0 10 -4 10 -10z m-340 -20 c0 -5 -5 -10 -11 -10 -5 0 -7 5 -4 10
3 6 8 10 11 10 2 0 4 -4 4 -10z m-10 -30 c0 -5 -5 -10 -11 -10 -5 0 -7 5 -4
10 3 6 8 10 11 10 2 0 4 -4 4 -10z m-34 -57 c-10 -10 -19 5 -10 18 6 11 8 11
12 0 2 -7 1 -15 -2 -18z m189 -23 c10 -11 15 -23 12 -27 -4 -3 -7 -1 -7 5 0 7
-6 12 -14 12 -8 0 -16 7 -20 15 -8 21 8 19 29 -5z m35 -2 c0 -6 -6 -5 -15 2
-8 7 -15 14 -15 16 0 2 7 1 15 -2 8 -4 15 -11 15 -16z m-1000 -18 c13 -8 13
-10 -2 -10 -9 0 -20 5 -23 10 -8 13 5 13 25 0z m726 -34 c3 -13 4 -35 1 -47
-3 -16 -5 -12 -6 14 0 20 -5 37 -11 37 -5 0 -10 5 -10 10 0 20 20 9 26 -14z
m184 -1 c0 -9 -80 -58 -86 -52 -3 3 10 13 30 22 20 10 36 21 36 26 0 5 5 9 10
9 6 0 10 -2 10 -5z m-219 -48 c-8 -8 -11 -5 -11 9 0 27 14 41 18 19 2 -9 -1
-22 -7 -28z m19 -27 c0 -5 -5 -10 -11 -10 -5 0 -7 5 -4 10 3 6 8 10 11 10 2 0
4 -4 4 -10z m-41 -27 c-10 -11 -14 -11 -21 -1 -6 8 -7 0 -4 -22 3 -19 3 -28
-1 -20 -3 8 -10 18 -15 21 -17 11 13 47 34 41 15 -3 16 -7 7 -19z m-504 -3 c3
-5 19 -10 36 -10 19 0 29 -5 29 -15 0 -19 -2 -19 -47 6 -45 25 -50 29 -35 29
6 0 14 -4 17 -10z m135 -46 c0 -8 -4 -12 -10 -9 -5 3 -10 13 -10 21 0 8 5 12
10 9 6 -3 10 -13 10 -21z m273 -114 l68 -5 -50 -38 c-28 -20 -51 -43 -51 -50
0 -6 7 -34 15 -61 8 -27 13 -52 10 -54 -3 -3 -22 8 -43 24 -59 48 -59 48 -113
9 -27 -21 -52 -35 -55 -32 -4 3 2 28 11 56 9 28 14 59 10 68 -3 10 -27 32 -53
48 l-47 30 70 5 69 5 19 50 c10 28 20 57 24 65 3 9 14 -11 27 -50 l21 -65 68
-5z m50 116 c6 -16 -1 -26 -17 -26 -6 0 -4 5 4 10 10 6 11 10 3 10 -7 0 -13 5
-13 10 0 15 17 12 23 -4z m-323 -38 c0 -14 -16 -9 -36 13 -19 21 -19 21 9 8
15 -7 27 -16 27 -21z m-20 -292 c0 -3 -4 -8 -10 -11 -5 -3 -10 -1 -10 4 0 6 5
11 10 11 6 0 10 -2 10 -4z m404 -46 c-6 -5 -24 21 -24 34 0 6 6 1 14 -10 8
-10 12 -21 10 -24z m-447 5 c-9 -8 -20 -15 -25 -15 -6 0 -12 -4 -14 -8 -1 -5
-16 -12 -31 -16 -24 -6 -27 -5 -15 8 7 7 16 12 19 10 3 -2 21 7 40 20 37 26
51 26 26 1z m380 3 c-3 -8 -6 -5 -6 6 -1 11 2 17 5 13 3 -3 4 -12 1 -19z m81
-38 c15 0 20 -4 15 -16 -3 -9 -9 -12 -12 -7 -3 5 -20 15 -38 22 -21 8 -30 18
-26 27 4 12 9 10 23 -6 9 -11 27 -20 38 -20z m-446 8 c-7 -7 -12 -8 -12 -2 0
14 12 26 19 19 2 -3 -1 -11 -7 -17z m508 3 c0 -5 -7 -12 -16 -15 -14 -5 -15
-4 -4 9 14 17 20 19 20 6z m-80 -47 c0 -8 -4 -12 -10 -9 -5 3 -10 10 -10 16 0
5 5 9 10 9 6 0 10 -7 10 -16z m165 -20 c36 -23 31 -39 -5 -17 -16 9 -30 21
-30 25 0 12 8 10 35 -8z m-765 -9 c-7 -8 -17 -15 -22 -15 -6 0 -5 7 2 15 7 8
17 15 22 15 6 0 5 -7 -2 -15z m643 -40 c-3 -9 -8 -14 -10 -11 -3 3 -2 9 2 15
9 16 15 13 8 -4z m202 -15 c3 -5 1 -10 -4 -10 -6 0 -11 5 -11 10 0 6 2 10 4
10 3 0 8 -4 11 -10z m61 -29 l23 -18 -47 0 c-26 0 -35 2 -19 4 28 5 36 18 15
26 -7 3 -9 6 -5 6 5 1 20 -7 33 -18z m-198 -46 c17 -38 14 -43 -8 -15 -21 27
-25 40 -12 40 5 0 14 -11 20 -25z m-653 6 c3 -5 1 -12 -5 -16 -5 -3 -10 1 -10
9 0 18 6 21 15 7z m945 -31 c13 -9 13 -11 0 -20 -8 -5 -19 -10 -25 -10 -5 0
-3 5 5 10 13 9 13 11 0 20 -8 5 -10 10 -5 10 6 0 17 -5 25 -10z m-1160 -20
c-24 -15 -36 -11 -14 4 10 8 21 12 24 10 2 -3 -2 -9 -10 -14z m1214 -9 c4 -5
-3 -7 -14 -4 -23 6 -26 13 -6 13 8 0 17 -4 20 -9z m-1032 -23 c-7 -7 -12 -8
-12 -2 0 14 12 26 19 19 2 -3 -1 -11 -7 -17z m778 12 c0 -5 -4 -10 -10 -10 -5
0 -10 5 -10 10 0 6 5 10 10 10 6 0 10 -4 10 -10z m-40 -16 c0 -8 -5 -12 -10
-9 -6 4 -8 11 -5 16 9 14 15 11 15 -7z m320 -14 c0 -5 7 -10 16 -10 14 0 14
-3 4 -15 -7 -8 -20 -15 -29 -14 -10 0 -11 2 -3 6 17 7 15 23 -3 23 -8 0 -15 5
-15 10 0 6 7 10 15 10 8 0 15 -4 15 -10z m-273 -22 c-3 -8 -6 -5 -6 6 -1 11 2
17 5 13 3 -3 4 -12 1 -19z m-12 -26 c-3 -3 -11 0 -18 7 -9 10 -8 11 6 5 10 -3
15 -9 12 -12z m345 8 c0 -5 -2 -10 -4 -10 -3 0 -8 5 -11 10 -3 6 -1 10 4 10 6
0 11 -4 11 -10z m-1160 -4 c0 -3 -4 -8 -10 -11 -5 -3 -10 -1 -10 4 0 6 5 11
10 11 6 0 10 -2 10 -4z m-30 -27 c0 -5 -4 -9 -10 -9 -5 0 -10 7 -10 16 0 8 5
12 10 9 6 -3 10 -10 10 -16z m1210 1 c0 -5 -2 -10 -4 -10 -3 0 -8 5 -11 10 -3
6 -1 10 4 10 6 0 11 -4 11 -10z m-1565 -30 c-3 -4 -17 -11 -32 -15 -15 -3 -31
-12 -35 -18 -6 -9 -8 -9 -8 1 0 7 11 17 24 22 13 5 27 14 31 20 3 5 11 8 16 4
5 -3 7 -9 4 -14z m1581 -5 c-8 -8 -21 -15 -28 -15 -8 1 -6 6 6 15 26 20 42 19
22 0z m-291 -44 c-3 -6 -11 -8 -17 -5 -6 4 -5 9 3 15 16 10 23 4 14 -10z
m-1000 -1 c-3 -5 -10 -10 -16 -10 -5 0 -9 5 -9 10 0 6 7 10 16 10 8 0 12 -4 9
-10z m-25 -39 c0 -10 -9 -21 -20 -24 -11 -3 -20 -1 -20 4 0 5 7 9 15 9 8 0 15
7 15 15 0 8 2 15 5 15 3 0 5 -8 5 -19z m-355 -1 c3 -5 1 -10 -4 -10 -6 0 -11
5 -11 10 0 6 2 10 4 10 3 0 8 -4 11 -10z m1819 -26 c8 -21 -12 -17 -24 6 -8
16 -8 18 4 14 8 -3 17 -12 20 -20z m-27 -36 c-3 -8 -6 -5 -6 6 -1 11 2 17 5
13 3 -3 4 -12 1 -19z m83 -19 c17 -17 29 -33 27 -36 -5 -4 -67 52 -67 61 0 11
9 6 40 -25z m-1974 6 c-25 -19 -41 -19 -24 0 7 8 20 14 28 14 11 0 10 -3 -4
-14z m314 -24 c0 -6 -4 -13 -10 -16 -5 -3 -10 1 -10 9 0 9 5 16 10 16 6 0 10
-4 10 -9z m24 -37 c-11 -16 -20 -22 -22 -14 -3 7 0 15 5 19 5 3 13 15 17 26 5
12 10 15 13 8 2 -6 -4 -24 -13 -39z m1280 32 c-3 -8 -1 -17 5 -21 14 -8 14
-25 1 -25 -5 0 -10 7 -10 15 0 8 -7 15 -15 15 -18 0 -20 16 -2 23 21 9 27 7
21 -7z m360 -31 c3 -8 1 -15 -4 -15 -6 0 -10 7 -10 15 0 8 2 15 4 15 2 0 6 -7
10 -15z m66 -11 c0 -2 -7 -4 -15 -4 -8 0 -15 4 -15 10 0 5 7 7 15 4 8 -4 15
-8 15 -10z m-2170 -74 c0 -9 -31 -30 -44 -30 -3 0 2 9 11 20 19 21 33 26 33
10z m1840 0 c0 -5 -4 -10 -10 -10 -5 0 -10 5 -10 10 0 6 5 10 10 10 6 0 10 -4
10 -10z m-1494 -36 c-19 -18 -21 -11 -4 19 7 14 13 17 15 10 3 -7 -3 -20 -11
-29z m1839 16 c3 -5 1 -10 -4 -10 -6 0 -11 5 -11 10 0 6 2 10 4 10 3 0 8 -4
11 -10z m-290 -26 c-9 -9 -19 -13 -23 -10 -3 4 0 11 8 16 24 15 33 11 15 -6z
m-1575 -3 c0 -5 -7 -11 -15 -15 -9 -3 -15 0 -15 9 0 8 7 15 15 15 8 0 15 -4
15 -9z m1960 -11 c0 -5 -4 -10 -10 -10 -5 0 -10 5 -10 10 0 6 5 10 10 10 6 0
10 -4 10 -10z m0 -46 c0 -2 -7 -4 -15 -4 -8 0 -15 4 -15 10 0 5 7 7 15 4 8 -4
15 -8 15 -10z m-2090 -8 c0 -3 -4 -8 -10 -11 -5 -3 -10 -1 -10 4 0 6 5 11 10
11 6 0 10 -2 10 -4z m1805 -6 c-3 -5 -10 -10 -16 -10 -5 0 -9 5 -9 10 0 6 7
10 16 10 8 0 12 -4 9 -10z m-1772 -20 c-14 -6 -23 -18 -23 -31 0 -12 -3 -20
-6 -16 -4 3 -4 18 0 32 5 18 13 25 29 24 l22 0 -22 -9z m2138 -33 c-1 -12 -15
-9 -19 4 -3 6 1 10 8 8 6 -3 11 -8 11 -12z m-2531 -27 c0 -5 -2 -10 -4 -10 -3
0 -8 5 -11 10 -3 6 -1 10 4 10 6 0 11 -4 11 -10z m2220 -10 c0 -5 -4 -10 -10
-10 -5 0 -10 5 -10 10 0 6 5 10 10 10 6 0 10 -4 10 -10z m-1933 -32 c-3 -8 -6
-5 -6 6 -1 11 2 17 5 13 3 -3 4 -12 1 -19z m-307 2 c0 -5 -4 -10 -10 -10 -5 0
-10 5 -10 10 0 6 5 10 10 10 6 0 10 -4 10 -10z m2619 -20 c8 0 7 -47 -2 -57
-4 -3 -8 0 -8 8 -1 8 -2 30 -4 49 -2 19 -1 27 2 18 2 -10 8 -18 12 -18z
m-2352 -25 c1 -5 -14 -20 -35 -33 l-37 -23 28 25 c15 14 27 28 27 31 0 11 -28
5 -33 -7 -2 -7 -8 -9 -13 -5 -5 4 -2 12 6 18 18 11 52 8 57 -6z m-336 -52
c-12 -20 -14 -14 -5 12 4 9 9 14 11 11 3 -2 0 -13 -6 -23z m2749 -9 c0 -2 -7
-4 -15 -4 -8 0 -15 4 -15 10 0 5 7 7 15 4 8 -4 15 -8 15 -10z m-235 -24 c17
-11 24 -20 17 -20 -8 0 -25 9 -39 20 -33 26 -17 26 22 0z m-2285 1 c0 -5 -7
-12 -16 -15 -24 -9 -28 -7 -14 9 14 17 30 20 30 6z m2534 -36 c5 -22 4 -26 -4
-15 -5 8 -10 24 -10 34 0 26 6 18 14 -19z m-54 -41 c0 -2 -9 -4 -20 -4 -11 0
-20 4 -20 9 0 5 9 7 20 4 11 -3 20 -7 20 -9z m40 -34 c0 -12 -17 -12 -45 0
-17 7 -15 9 13 9 17 1 32 -3 32 -9z"/>
<path d="M5360 6466 c0 -14 53 -106 61 -106 17 0 10 21 -23 66 -29 41 -38 50
-38 40z"/>
<path d="M5536 5681 c-4 -7 -5 -15 -2 -18 9 -9 19 4 14 18 -4 11 -6 11 -12 0z"/>
<path d="M5191 5565 c-34 -25 -66 -45 -73 -45 -8 0 -9 -3 -2 -10 12 -12 54 -1
54 15 0 7 23 27 50 45 28 18 50 34 50 36 0 12 -24 -1 -79 -41z"/>
<path d="M6717 4729 c7 -7 15 -10 18 -7 3 3 -2 9 -12 12 -14 6 -15 5 -6 -5z"/>
</g>
</svg>
